# xmcd
# 
# Track frame offsets:
#     187
#     37542
#     68892
#     101209
#     123729
#     155227
#     177257
#     207174
#     247612
# 
# Disc length: 3640
# 
# Revision: 0
# Processed by: cddbd v1.5.2PL0 Copyright (c) Steve Scherf et al.
# Submitted via: BonkEnc v1.0.8
# 
DISCID=750e3609
DTITLE=Christy Doran - Mark Helias - Bobby Previte - Gary Thomas - Corporate Art
DYEAR=1991
DGENRE=Contemporary Jazz
TTITLE0=Blood Sugar 360*
TTITLE1=21
TTITLE2=Mutations
TTITLE3=Skin
TTITLE4=Chiaroscuro
TTITLE5=Heitere Gelassenheit
TTITLE6=Bass Minotaur
TTITLE7=The Same But Different
TTITLE8=Theme for W.
EXTD=YEAR: 1991
EXTT0=
EXTT1=
EXTT2=
EXTT3=
EXTT4=
EXTT5=
EXTT6=
EXTT7=
EXTT8=
PLAYORDER=
